<?xml version="1.0" encoding="utf-8"?>
<!-- Generator: Adobe Illustrator 27.3.1, SVG Export Plug-In . SVG Version: 6.00 Build 0)  -->
<svg version="1.1" id="Layer_1" xmlns="http://www.w3.org/2000/svg" xmlns:xlink="http://www.w3.org/1999/xlink" x="0px" y="0px"
	 viewBox="0 0 700 700" style="enable-background:new 0 0 700 700;" xml:space="preserve">
<style type="text/css">
	.st0{fill:#8E21ED;}
	.st1{fill:#FFB200;}
	.st2{fill:#FF8300;}
	.st3{fill:#FF393C;}
	.st4{fill:#FF4A5E;}
	.st5{fill:#1F1C2B;}
	.st6{fill:#14BFEC;}
	.st7{fill:#2CE8CE;}
	.st8{fill:#14C4B7;}
	.st9{fill:#2DE8D1;}
	.st10{fill:#1F1D2D;}
	.st11{fill:#FF373C;}
	.st12{fill:#FFB300;}
	.st13{fill:#20EFD7;}
	.st14{fill:#FF4840;}
	.st15{fill:#10C7BA;}
</style>
<circle class="st0" cx="350" cy="350" r="350"/>
<g>
	<path class="st1" d="M276.8,178.7c-0.7,11.5-0.8,23.1-0.3,34.7l-30.5-0.2c-0.2,0-0.4-0.2-0.4-0.4l-0.3-34L276.8,178.7z"/>
	<path class="st2" d="M276.8,178.7H339c0.2,0.1,0.3,0.3,0.3,0.4c-0.1,0.2-0.1,0.3-0.2,0.5c-0.2,0.2-0.2,0.4-0.1,0.7
		c0.4,1.6,0.7,3.3,0.7,5c0.1,9.4,0.1,18.8-0.2,28.3l-63-0.1C276,201.8,276.2,190.2,276.8,178.7z"/>
	<path class="st1" d="M339,178.7c21.6,0.1,43.3,0.2,64.9,0.2c3.9,0,7.7,0.1,11.4,0.3c8.1,0.4,16.3,2.2,24.7,5.2
		c8.6,3.1,16.6,6.8,23.9,12.2c21.8,16.2,35.5,37.6,41.1,64.2c1.4,6.6,2,14.8,1.8,24.7c0,2.8-0.2,5.6-0.6,8.4
		c-0.5,3.8-0.7,7.4-1.7,11.2c-2,7.8-4.6,15.4-7.9,22.6c-2.7,5.5-5.2,10.2-7.6,14c-6.8,11-16.3,21.8-27.6,29.1
		c-7.8,5.1-14.5,8.9-20.1,11.4c-9,4-18.7,6.8-29.2,8.3c-3.7,0.5-6.6,0.8-9,0.8c-21.1-0.1-42.5,0-64.3,0.2c0.2,0,0.4,0,0.6,0
		c0.7-11.7,0.7-23.2-0.1-34.7c18.5,0.1,37.4,0,56.7-0.2c12.9-0.1,24.1-2.2,35.6-8.1c14.5-7.4,25.6-18.2,33.1-32.4
		c7.6-14.2,9.5-29.1,7.7-45.1c-1.7-14.6-8.7-28.2-18.8-39c-10.6-11.3-27-18.4-42.5-18.5c-23.9-0.1-47.8-0.1-71.6-0.2
		c0.2-9.5,0.3-18.9,0.2-28.3c0-1.7-0.2-3.4-0.7-5c-0.1-0.2,0-0.5,0.1-0.7c0.1-0.1,0.2-0.3,0.2-0.5
		C339.4,178.9,339.3,178.8,339,178.7z"/>
	<path class="st3" d="M245.3,178.9l0.3,34c0,0.2,0.2,0.4,0.4,0.4l30.5,0.2l63,0.1c23.8,0,47.7,0.1,71.6,0.2
		c15.4,0.1,31.9,7.2,42.5,18.5c10.1,10.8,17.1,24.3,18.8,39c1.8,16-0.1,30.8-7.7,45.1c-7.5,14.2-18.6,25-33.1,32.4
		c-11.6,5.9-22.7,8-35.6,8.1c-19.3,0.2-38.2,0.3-56.7,0.2h-30.5c-0.4,0-0.8-0.4-0.8-0.8l0,0c0-10.7,0-20.8,0-30.3
		c0-0.9,0.1-1.8,0.4-2.6c0.1-0.5-0.2-1-0.6-1.1h-0.1l-3-0.3h3.4h31.3c18.1,0,35.9-0.1,53.6-0.1c6.3,0,10.8-0.3,13.6-0.8
		c4.5-0.9,8.8-2.5,12.9-4.8c2.5-1.4,5-3.4,7.4-5.9c5.6-5.8,9.1-12.7,10.6-20.5c0.1,0.1,0.1,0,0.2-0.2c2.2-11.6-0.2-21.6-7.3-30
		c-6.5-7.7-15.5-10.2-25.3-10.2c-32.7,0-65.1,0-97.2,0.1l-31.3,0.1h-34.5h-27.6c-0.4-0.2-0.8-0.5-1-0.8c-0.2-0.2-0.3-0.6-0.3-1.1
		c-0.1-19.1-0.1-38.2,0-57.3c0-2.9,0.4-5.7,0.3-8.6c0-0.3-0.1-0.6-0.3-0.9c-0.4-0.4-0.6-0.9-0.6-1.4c0-0.3,0.1-0.4,0.4-0.5l6.8-0.1
		L245.3,178.9z"/>
	<path class="st4" d="M213.2,248.8c-0.2-0.2-0.3-0.6-0.3-1.1c-0.1-19-0.1-38.2,0-57.3c0-2.9,0.4-5.8,0.3-8.6c0-0.3-0.1-0.6-0.3-0.9
		c-0.3-0.4-0.5-0.9-0.6-1.4c0-0.3,0.1-0.5,0.4-0.5l6.8-0.1l-36.9-0.2l0.2,22.1v49.5c0.4-0.2,0.9-0.4,1.5-0.5c0.2,0,0.5,0,0.7,0
		c0.1,0,0.3,0,0.4,0c0,0,0,0,0,0l28.8-0.2C213.8,249.3,213.4,249.1,213.2,248.8z"/>
	<path class="st5" d="M437.4,289.6h-97.6c-0.2,0-0.4,0.2-0.4,0.5l0.1,31.7h-31.3l-0.4-72.3c32.2-0.1,64.6-0.1,97.2-0.1
		c9.8,0,18.8,2.4,25.3,10.2c7.1,8.4,9.5,18.4,7.3,30C437.5,289.6,437.4,289.7,437.4,289.6z"/>
	<path class="st6" d="M214.3,249.6h27.6l1.6,0.1l0,0l-0.1,0.3c0,0.1,0,0.3,0.1,0.4c0.9,0.6,1.4,1.4,1.4,2.5c0.2,4.1,0.3,8,0.3,11.7
		c0,12.5,0,23.4,0,32.7c0,8-0.5,15.9,0.1,23.9c0,0.3-0.1,0.5-0.3,0.6s-0.4,0.1-0.6,0l-28.8-0.1l-32,0.1c-0.4-0.4-0.7-0.8-1-1.4
		v-53.6c0.4-3.1,0.4-6.3,0-9.5l0.2-7c0.7-0.4,1.6-0.6,2.6-0.5L214.3,249.6z"/>
	<path class="st7" d="M242,249.6h34.5h0.7c0.5,0,0.5,0.2,0.2,0.5c-0.7,0.6-1,1.4-0.9,2.5c0.1,0.9,0.2,1.7,0.1,2.6
		c-0.1,1.9-0.2,3.8-0.2,5.8c-0.1,20.1,0,40.2,0.2,60.4c0,0.2-0.1,0.4-0.3,0.4c-0.1,0.1-0.3,0.1-0.5,0l-30.4,0.1l-0.8-0.1
		c0.2,0.1,0.4,0.1,0.6,0s0.3-0.3,0.3-0.6c-0.5-8-0.1-15.9-0.1-23.9c0-9.3,0-20.2,0-32.7c0-3.8-0.1-7.7-0.3-11.7
		c-0.1-1.1-0.5-1.9-1.4-2.5c-0.1-0.1-0.2-0.2-0.1-0.4l0.1-0.3l0,0L242,249.6z"/>
	<path class="st8" d="M307.7,249.5l0.4,72.3h-3.4l-28.3,0.1c-0.1,0.1-0.3,0-0.6-0.1c0.2,0,0.4,0,0.5,0c0.2-0.1,0.3-0.2,0.3-0.4
		c-0.2-20.2-0.3-40.3-0.2-60.4c0-2,0.1-3.9,0.2-5.8c0.1-0.9,0-1.7-0.1-2.6c-0.2-1.1,0.1-1.9,0.9-2.5c0.4-0.3,0.3-0.4-0.2-0.5h-0.7
		L307.7,249.5z"/>
	<path class="st9" d="M182.7,257.3c0.4,3.2,0.4,6.4,0,9.5V257.3z"/>
	<path class="st10" d="M572.9,273.9c3.8,11.1,6.3,22.9,7.5,35.5c1.5,15.3,1.3,30.2-0.7,44.7c-1.2,8.8-3.7,19-7.6,30.6
		c-0.8,2.5-1.8,5.1-2.9,7.7c-1.7,4.1-3.2,8.4-5.5,12.2c-0.9,1.5-1.9,3.2-2.8,5.1c-5.3,10.2-10.9,18.9-16.8,26.2
		c-4.7,5.8-10.6,12.1-17.7,18.9c-3.9,3.7-8.1,7.2-12.6,10.4c-9,6.5-17.4,11.7-25.2,15.6c-16.7,8.2-34.2,13.8-52.5,16.9
		c-12.6,2.1-26.2,3.2-40.6,3.2c-7.7,0-15.7,0-24.1,0c-0.3,0-0.4,0.1-0.4,0.4v108.2c0,0.4-0.2,0.6-0.6,0.6c-2.2,0-4.5-0.2-6.6-0.2
		c-48.1,0.2-96.4,0.2-144.9,0.1c-1.2,0-2.2-0.3-3-1c-10.4-8.7-20.6-17.8-30.6-27.1l29.1-0.3l31.2,0.1l30.9-0.1l32.4,0.1l30.2-0.1
		c0.3,0,0.5-0.2,0.5-0.5V460.2c0-0.5,0.3-0.8,0.8-0.8c18.3,0,36.6,0,54.7,0c13.7,0,26.6-1.2,39.9-4.4c15.3-3.6,29.6-8.7,42.9-15.5
		c8.5-4.3,17.7-10.5,27.7-18.6c12.8-10.4,23.7-21.8,32.4-34c2.3-2.9,4.4-6,6.4-9.1c10.4-16.6,17.9-33.5,22.6-50.8
		c3-11.1,4.9-23.3,5.6-36.5c0-0.4,0.1-3.1,0.1-8.3C572.4,279.5,572.6,276.7,572.9,273.9z"/>
	<path class="st5" d="M182.7,320.3c0.3,0.6,0.6,1,1,1.4c-0.2-0.1-0.3-0.1-0.4-0.1c-0.2,0-0.4,0.2-0.4,0.4l-0.1,0.4L182.7,320.3z"/>
	<path class="st11" d="M244.6,321.8l0.8,0.1c0.4,85.4,0.4,141.9,0.2,169.3c-0.2,20.6-0.2,41.3-0.1,61.9c0.1,9.4,0,18.8-0.1,28.4
		l-31.2-0.1c-0.4-0.8-0.7-1.6-1-2.5c-0.3-0.8-0.4-1.7-0.3-2.7c0.2-3.2,0.5-6.5,0.5-9.6c0-13.6-0.1-27.9-0.2-42.8c0-1.3,0-2.6,0-3.9
		c0-14.5-0.4-28.4-0.3-42.5c0.1-16,0.3-31.9,0.4-47.7c0.1-10.1-0.5-20.1-0.4-30.1c0.1-8.9,0.1-17.8,0-26.7c0-3.5,0-6.9,0.2-10.4
		c0.2-4.6-0.3-9.3-0.3-13.8c0-6,0-12.1,0.2-18.2c0-1.7,0.3-3.2,0.8-4.5c0.3-0.8,0.4-1.7,0.2-2.7c-0.1-0.4,0-0.8,0.2-1.1
		c0.3-0.3,0.8-0.6,1.6-0.7L244.6,321.8z"/>
	<path class="st12" d="M275.8,321.8c0.2,0.1,0.4,0.2,0.6,0.1c-0.1,3.2-0.4,6.4-0.3,9.6c0.1,12.5,0.2,25.1,0.3,37.6
		c0.2,40.2,0.1,91.4-0.1,153.6c-0.1,19.5-0.1,39.1,0.1,58.7l-30.9,0.1c0.1-9.5,0.2-19,0.1-28.4c-0.1-20.6-0.1-41.3,0.1-61.9
		c0.2-27.5,0.2-83.9-0.2-169.3L275.8,321.8z"/>
	<path class="st2" d="M304.7,321.8l3,0.3c0.5,0,0.8,0.5,0.8,1v0.1c-0.2,0.9-0.3,1.7-0.4,2.6c0,9.5,0,19.6,0,30.3
		c0,0.4,0.4,0.8,0.8,0.8l0,0h30.5c0.8,11.5,0.8,23.1,0.1,34.7l-28.6,0.3c-1.4,0-2.1,0.7-2.1,2.2v187.4l-32.4-0.1
		c-0.1-19.6-0.2-39.2-0.1-58.7c0.2-62.2,0.3-113.4,0.1-153.6c-0.1-12.5-0.1-25.1-0.3-37.6c0-3.2,0.3-6.4,0.3-9.6L304.7,321.8z"/>
	<path class="st13" d="M539.1,275c-0.1-5.7-0.6-11-1.4-15.9c-3.1-18.3-9.5-35.2-19.2-50.7c-5.2-8.2-11.3-16-18.3-23.4
		c-3.3-3.5-7.3-7.1-11.9-10.8c-6.8-5.5-12.7-9.8-17.6-12.7c-8-4.8-17.9-9.1-29.7-12.7c-10.5-3.2-21.3-3.8-32.7-3.8
		c-7.8,0-16,0-24.5,0c-48.8-0.1-89.7-0.1-122.9,0.1c-18.8,0.1-44.9,0-78.4-0.3l0.1,33.9l36.9,0.2l25.8-0.1l31.5-0.2H339
		c21.6,0.1,43.3,0.2,64.9,0.2c3.9,0,7.7,0.1,11.4,0.3c8.1,0.4,16.3,2.2,24.7,5.2c8.6,3.1,16.6,6.8,23.9,12.2
		c21.8,16.2,35.5,37.6,41.1,64.2c1.4,6.6,2,14.8,1.8,24.7c0,2.8-0.2,5.6-0.6,8.4c-0.5,3.8-0.7,7.4-1.7,11.2
		c-2,7.8-4.6,15.4-7.9,22.6c-2.7,5.5-5.2,10.2-7.6,14c-6.8,11-16.3,21.8-27.6,29.1c-7.8,5.1-14.5,8.9-20.1,11.4
		c-9,4-18.7,6.8-29.2,8.3c-3.7,0.5-6.6,0.8-9,0.8c-21.1-0.1-42.5,0-64.3,0.2V424l0,0c0,0.8,0.7,1.4,1.5,1.4
		c13.9-0.1,29.4-0.1,46.5-0.1c3.3,0,6.6,0,9.8-0.1c4.5-0.1,8.8,0,13.4-0.6c10.3-1.2,20.3-3.2,30-6.2c23.1-6.9,43.8-20.9,60.6-38.6
		c1.4-1.5,2.7-3,4-4.6c4.9-5.8,9.5-11.8,13.6-18.2c2.7-4,4.9-8.6,7.3-13c4-8,6.4-16.6,8.9-25.1c1.3-4.4,2.1-8.7,2.8-13.1
		C538.7,296.4,539.3,286,539.1,275z"/>
	<path class="st14" d="M183.6,321.8c-0.1-0.1-0.3-0.1-0.4-0.1c-0.2,0.1-0.3,0.2-0.4,0.4l-0.1,0.4l0.2,17.9l-0.1,111.1l0.2,0.1
		c0.2,0.1,0.3,0,0.3-0.2c0,0,0-0.1,0-0.1c0,0.1,0,0.2,0,0.2c0,0.2-0.1,0.3-0.3,0.2l-0.2-0.1c0,41.8,0,83.7,0,125.5
		c0,2.2,0.8,3.8,2.3,4.7l29.1-0.3c-0.4-0.8-0.7-1.6-1-2.5c-0.2-0.8-0.4-1.7-0.3-2.7c0.2-3.2,0.5-6.5,0.5-9.6
		c0-13.5-0.1-27.8-0.2-42.8c0-1.3,0-2.6,0-3.9c0-14.4-0.4-28.3-0.3-42.5c0.2-16,0.3-31.9,0.4-47.7c0-10.1-0.5-20-0.4-30.1
		c0.1-8.9,0.1-17.8,0-26.7c0-3.5,0.1-7,0.2-10.4c0.2-4.6-0.3-9.3-0.3-13.8c0-6,0.1-12.1,0.2-18.2c0-1.8,0.3-3.3,0.8-4.5
		c0.3-0.8,0.4-1.7,0.2-2.7c-0.1-0.5,0-0.8,0.2-1.1c0.3-0.4,0.8-0.6,1.6-0.7L183.6,321.8z"/>
	<g>
		<path class="st15" d="M572.3,271.4c-1.4-13.7-3.8-26.5-7.3-38.5c-4.9-16.8-12.7-33.3-23.5-49.6c-11.5-17.5-26.4-32.5-44.5-45.2
			c-16.4-11.4-35.4-19.2-55.2-24.1c-11.4-2.9-23.5-4-35.3-4c-70.8,0-144.2,0-220.3,0c-2.5,0-3.7,1.3-3.6,3.8c0.2,4.5,0.2,14.9,0,31
			c33.5,0.3,59.6,0.4,78.4,0.3c33.1-0.1,74.1-0.2,122.9-0.1c8.5,0,16.7,0,24.5,0c11.4,0,22.2,0.6,32.7,3.8
			c11.8,3.6,21.7,7.8,29.7,12.7c4.9,3,10.8,7.2,17.6,12.7c4.6,3.7,8.6,7.3,11.9,10.8c7,7.4,13.1,15.2,18.3,23.4
			c9.7,15.5,16.1,32.3,19.2,50.7c0.8,4.9,1.3,10.2,1.4,15.9c0.2,11.1-0.4,21.4-1.8,31.1c-0.6,4.4-1.5,8.7-2.8,13.1
			c-2.5,8.6-4.9,17.1-8.9,25.1c-2.4,4.4-4.7,9-7.3,13c-4.2,6.3-8.7,12.4-13.6,18.2c-1.2,1.6-2.6,3.2-4,4.6
			c-16.8,17.7-37.5,31.6-60.6,38.6c-9.7,2.9-19.7,5-30,6.2c-4.5,0.5-8.9,0.4-13.4,0.6c-3.3,0.1-6.5,0.1-9.8,0.1
			c-17.1,0-32.6,0-46.5,0.1l0,0c-0.8,0-1.5-0.6-1.5-1.4v-32.6l-28,0.3c-1.4,0-2.1,0.7-2.1,2.2v187.4l30.2-0.1c0.3,0,0.5-0.2,0.5-0.5
			V460.1c0-0.5,0.3-0.8,0.8-0.8c18.3,0,36.6,0,54.7,0c13.7,0,26.6-1.2,39.9-4.4c15.3-3.6,29.6-8.7,42.9-15.5
			c8.5-4.3,17.7-10.5,27.7-18.6c12.8-10.4,23.7-21.8,32.4-34c2.3-2.9,4.4-6,6.4-9.1c10.4-16.6,17.9-33.5,22.6-50.8
			c3-11.1,4.9-23.3,5.6-36.5c0-0.4,0.1-3.1,0.1-8.3c0-2.7,0.2-5.5,0.5-8.3C572.6,273,572.4,272.2,572.3,271.4z"/>
		<path class="st15" d="M338.8,391.6L338.8,391.6h0.6C339.2,391.6,339,391.6,338.8,391.6z"/>
	</g>
</g>
</svg>
